Mayak aka The Lighthouse (Mariya Saakyan, 2006)
 
http://www.imdb.com/title/tt1020889/

Maria Saakyan's elegiac, semi-autobiographical slice-of-life drama The Lighthouse (2006) unfolds in the very early '90s, against the backdrop of the Caucasus wars that plagued Georgia, Armenia, and Azerbaijan. As the scope of this mass-scaled conflict extends itself to one woman's small village, she is forced to drop everything, move to Moscow, and start over from scratch -- thus bidding farewell to her hometown and way of life, perhaps indefinitely. (allrovi.com)


-------------------------


Format : AVI 
Format/Info : Audio Video Interleave 
File size : 701 MiB 
Duration : 1h 14mn 
Overall bit rate : 1 315 Kbps 
Writing application : VirtualDubMod 1.5.10.2 (build 2540/release) 
Writing library : VirtualDubMod build 2540/release 

Video 
ID : 0 
Format : MPEG-4 Visual 
Format profile : Simple@L3 
Format settings, BVOP : No 
Format settings, QPel : No 
Format settings, GMC : No warppoints 
Format settings, Matrix : Default (H.263) 
Codec ID : XVID 
Codec ID/Hint : XviD 
Duration : 1h 14mn 
Bit rate : 1 113 Kbps 
Width : 624 pixels 
Height : 352 pixels 
Display aspect ratio : 16:9 
Frame rate : 25.000 fps 
Color space : YUV 
Chroma subsampling : 4:2:0 
Bit depth : 8 bits 
Scan type : Progressive 
Bits/(Pixel*Frame) : 0.203 
Stream size : 593 MiB (85%) 
Writing library : XviD 1.2.1 (UTC 2008-12-04) 

Audio 
ID : 1 
Format : AC-3 
Format/Info : Audio Coding 3 
Mode extension : CM (complete main) 
Codec ID : 2000 
Duration : 1h 14mn 
Bit rate mode : Constant 
Bit rate : 192 Kbps 
Channel(s) : 2 channels 
Channel positions : Front: L R 
Sampling rate : 48.0 KHz 
Bit depth : 16 bits 
Stream size : 102 MiB (15%) 
Alignment : Split accross interleaves 
Interleave, duration : 40 ms (1.00 video frame) 
Interleave, preload duration : 500 ms